<?xml version="1.0" encoding="utf-8"?>
<!-- Generator: Adobe Illustrator 26.0.3, SVG Export Plug-In . SVG Version: 6.00 Build 0)  -->
<svg version="1.1" id="레이어_1" xmlns="http://www.w3.org/2000/svg" xmlns:xlink="http://www.w3.org/1999/xlink" x="0px"
	 y="0px" viewBox="0 0 213.21 110.06" style="enable-background:new 0 0 213.21 110.06;" xml:space="preserve">
<style type="text/css">
	.st0{fill:#FFFFFF;}
</style>
<g>
	<path class="st0" d="M87.49,81.48c-0.49,1.52-1.4,4.38-2.72,8.59c-0.69,2.47-1.27,5.35-1.76,8.64H16.47
		c-0.25-8.91-0.86-23.58-1.84-44.02c-0.64-10.46-1.79-24.91-3.46-43.33H62.2l-4.19,72.45c4.75,0,11.89-0.4,21.39-1.19
		C81.36,82.46,84.06,82.08,87.49,81.48z"/>
	<path class="st0" d="M202.04,11.36c-0.83,9.33-1.94,24.51-3.31,45.55c-0.39,10.01-1.08,23.94-2.06,41.8h-37.5l-0.81-19.11
		c-0.88,0.23-2.67,0.78-5.37,1.65c-3.19,1.06-5.44,1.91-6.76,2.56l-3.82-7c-0.78-1.52-2.08-3.66-3.9-6.43l-0.74,28.32H96.38
		l-2.13-41.8c-0.44-10.88-1.54-26.06-3.31-45.55h51.61l-3.46,53.8c3.58,0.27,7.01,0.34,10.29,0.23c2.11-0.04,4.95-0.19,8.53-0.45
		l-3.75-53.57H202.04z"/>
</g>
</svg>
